HIERARCHY
ROOT Hips
{
	OFFSET 0.00 0.00 0.00
	CHANNELS 6 Xposition Yposition Zposition Xrotation Yrotation Zrotation
	JOINT Spine
	{
		OFFSET 0.00000 1.92919 2.89379
		CHANNELS 3 Xrotation Yrotation Zrotation
		JOINT Spine1
		{
			OFFSET 0.00000 0.67000 3.79977
			CHANNELS 3 Xrotation Yrotation Zrotation
			JOINT Spine2
			{
				OFFSET 0.00000 0.33628 3.84370
				CHANNELS 3 Xrotation Yrotation Zrotation
				JOINT Spine3
				{
					OFFSET 0.00000 0.00000 3.85838
					CHANNELS 3 Xrotation Yrotation Zrotation
					JOINT Neck
					{
						OFFSET 0.00000 -1.44688 10.12826
						CHANNELS 3 Xrotation Yrotation Zrotation
						JOINT Head
						{
							OFFSET 0.00000 -0.92125 5.22468
							CHANNELS 3 Xrotation Yrotation Zrotation
							End Site
							{
								OFFSET 0.00000 0.00001 6.24576
							}
						}
					}
					JOINT RightShoulder
					{
						OFFSET -1.19724 -1.99539 6.46510
						CHANNELS 3 Xrotation Yrotation Zrotation
						JOINT RightArm
						{
							OFFSET -5.94629 0.00000 0.00000
							CHANNELS 3 Xrotation Yrotation Zrotation
							JOINT RightForeArm
							{
								OFFSET -11.02134 0.00000 0.00000
								CHANNELS 3 Xrotation Yrotation Zrotation
								JOINT RightHand
								{
									OFFSET -10.43440 0.00000 0.00000
									CHANNELS 3 Xrotation Yrotation Zrotation
									JOINT RightHandEnd
									{
										OFFSET -2.82937 0.00000 0.00000
										CHANNELS 3 Xrotation Yrotation Zrotation
										End Site
										{
											OFFSET -2.82937 0.00000 0.00000
										}
									}
									JOINT RightHandThumb1
									{
										OFFSET -1.13175 -1.88625 -0.75450
										CHANNELS 3 Yrotation Xrotation Zrotation
										End Site
										{
											OFFSET -2.73296 -0.73229 0.00000
										}
									}
								}
							}
						}
					}
					JOINT LeftShoulder
					{
						OFFSET 1.19724 -1.99539 6.46510
						CHANNELS 3 Xrotation Yrotation Zrotation
						JOINT LeftArm
						{
							OFFSET 5.94629 0.00000 0.00000
							CHANNELS 3 Xrotation Yrotation Zrotation
							JOINT LeftForeArm
							{
								OFFSET 11.02134 0.00000 0.00000
								CHANNELS 3 Xrotation Yrotation Zrotation
								JOINT LeftHand
								{
									OFFSET 10.43440 0.00000 0.00000
									CHANNELS 3 Xrotation Yrotation Zrotation
									JOINT LeftHandEnd
									{
										OFFSET 2.82937 0.00000 0.00000
										CHANNELS 3 Xrotation Yrotation Zrotation
										End Site
										{
											OFFSET 2.82937 0.00000 0.00000
										}
									}
									JOINT LeftHandThumb1
									{
										OFFSET 1.13175 -1.88625 -0.75450
										CHANNELS 3 Yrotation Xrotation Zrotation
										End Site
										{
											OFFSET 2.73296 -0.73229 0.00000
										}
									}
								}
							}
						}
					}
				}
			}
		}
	}
	JOINT RightUpLeg
	{
		OFFSET -3.55181 0.00000 -1.03761
		CHANNELS 3 Xrotation Yrotation Zrotation
		JOINT RightLeg
		{
			OFFSET 0.00001 0.00000 -15.86106
			CHANNELS 3 Xrotation Yrotation Zrotation
			JOINT RightFoot
			{
				OFFSET 0.00001 0.00000 -16.30493
				CHANNELS 3 Xrotation Yrotation Zrotation
				JOINT RightToeBase
				{
					OFFSET 0.00000 -5.76215 -2.09725
					CHANNELS 3 Xrotation Yrotation Zrotation
					End Site
					{
						OFFSET 0.00000 -2.87338 -0.00000
					}
				}
			}
		}
	}
	JOINT LeftUpLeg
	{
		OFFSET 3.55181 0.00000 -1.03761
		CHANNELS 3 Xrotation Yrotation Zrotation
		JOINT LeftLeg
		{
			OFFSET 0.00001 0.00000 -15.86106
			CHANNELS 3 Xrotation Yrotation Zrotation
			JOINT LeftFoot
			{
				OFFSET 0.00001 0.00000 -16.30493
				CHANNELS 3 Xrotation Yrotation Zrotation
				JOINT LeftToeBase
				{
					OFFSET 0.00000 -5.76215 -2.09725
					CHANNELS 3 Xrotation Yrotation Zrotation
					End Site
					{
						OFFSET 0.00000 -2.87338 -0.00000
					}
				}
			}
		}
	}
}
MOTION
Frames: 11
Frame Time: 0.008342
 -13.0768 -14.7017 36.3508 3.4054 -5.1785 94.0231 0.2684 4.1253 0.8262 -1.1515 0.2958 0.0334 8.0251 -1.0722 -1.0826 3.1560 -0.4750 0.3593 10.7716 0.0740 2.8866 2.1777 3.9669 7.9920 2.2332 7.8188 -7.1550 -10.6262 -23.4085 7.8264 0.0000 0.0000 0.2638 -19.4605 -4.4711 -7.4430 -0.0000 0.0000 0.0000 0.0000 0.0000 -0.0000 5.4066 -8.0806 8.5917 9.2934 9.9567 -24.1164 -0.0000 0.0000 0.8574 -18.4566 -0.8808 2.8858 0.0000 0.0000 0.0000 0.0000 -0.0000 0.0000 6.6921 2.2530 -37.2547 6.3360 0.0000 0.0000 -5.6032 1.0712 2.0332 -2.7195 0.0000 -0.0000 4.5842 2.0213 28.3816 9.5623 0.0000 0.0000 -0.1153 1.6522 -3.9315 -12.5164 0.0000 -0.0000
 -13.0813 -14.6994 36.3508 3.4064 -5.1889 94.0582 0.2977 4.1252 0.8232 -1.1471 0.2921 0.0328 8.0154 -1.0657 -1.0854 3.1517 -0.4737 0.3569 10.7570 0.0601 2.8650 2.1612 3.9481 7.9561 2.2367 7.8316 -7.1457 -10.5749 -23.4205 7.8371 0.0000 0.0000 0.1948 -19.4224 -4.5248 -7.4998 -0.0000 -0.0000 -0.0000 0.0000 -0.0000 0.0000 5.4142 -8.0949 8.5778 9.3073 9.9547 -24.1268 -0.0000 0.0000 0.8354 -18.4734 -0.8974 2.8654 0.0000 0.0000 0.0000 0.0000 0.0000 0.0000 6.6984 2.2536 -37.2759 6.3396 0.0000 0.0000 -5.6009 1.0732 2.0191 -2.7181 0.0000 -0.0000 4.5606 2.0148 28.3046 9.6103 0.0000 0.0000 -0.1257 1.6471 -3.8826 -12.5090 0.0000 -0.0000
 -13.0887 -14.6968 36.3507 3.4020 -5.1757 94.1026 0.3065 4.1216 0.8176 -1.1419 0.2898 0.0312 8.0095 -1.0612 -1.0858 3.1460 -0.4712 0.3533 10.7366 0.0438 2.8384 2.1377 3.9227 7.9094 2.2386 7.8421 -7.1332 -10.5140 -23.4306 7.8515 0.0000 0.0000 0.1082 -19.3732 -4.5927 -7.5753 -0.0000 0.0000 0.0000 -0.0000 -0.0000 0.0000 5.4212 -8.1052 8.5595 9.3274 9.9429 -24.1382 -0.0000 0.0000 0.8052 -18.4991 -0.9182 2.8376 -0.0000 0.0000 0.0000 0.0000 -0.0000 0.0000 6.6725 2.2515 -37.2940 6.3502 0.0000 0.0000 -5.5983 1.0797 1.9920 -2.7153 0.0000 -0.0000 4.4923 1.9998 28.1964 9.6873 0.0000 0.0000 -0.1454 1.6377 -3.8091 -12.5008 0.0000 -0.0000
 -13.0983 -14.6938 36.3504 3.3942 -5.1510 94.1528 0.3112 4.1173 0.8106 -1.1425 0.2819 0.0311 8.0061 -1.0512 -1.0895 3.1407 -0.4702 0.3519 10.7122 0.0273 2.8059 2.1081 3.8913 7.8547 2.2402 7.8549 -7.1178 -10.4416 -23.4433 7.8707 0.0000 0.0000 0.0067 -19.3167 -4.6713 -7.6709 0.0000 -0.0000 0.0000 0.0000 -0.0000 -0.0000 5.4271 -8.1127 8.5366 9.3533 9.9247 -24.1468 -0.0000 0.0000 0.7640 -18.5294 -0.9447 2.8033 0.0000 -0.0000 0.0000 -0.0000 0.0000 -0.0000 6.6297 2.2476 -37.3060 6.3651 0.0000 0.0000 -5.5950 1.0891 1.9521 -2.7110 0.0000 -0.0000 4.3993 1.9800 28.0693 9.7820 0.0000 0.0000 -0.1708 1.6249 -3.7201 -12.4925 0.0000 -0.0000
 -13.1081 -14.6897 36.3502 3.3893 -5.1345 94.2070 0.3223 4.1116 0.8027 -1.1357 0.2807 0.0307 7.9993 -1.0477 -1.0874 3.1340 -0.4658 0.3459 10.6869 0.0106 2.7699 2.0748 3.8567 7.7931 2.2453 7.8724 -7.1006 -10.3604 -23.4597 7.8966 -0.0000 -0.0000 -0.1078 -19.2552 -4.7666 -7.7801 0.0000 0.0000 0.0000 -0.0000 -0.0000 -0.0000 5.4355 -8.1220 8.5124 9.3890 9.9031 -24.1567 -0.0000 0.0000 0.7140 -18.5656 -0.9767 2.7663 -0.0000 0.0000 -0.0000 0.0000 0.0000 0.0000 6.5945 2.2487 -37.3309 6.3831 0.0000 0.0000 -5.5937 1.0980 1.9207 -2.7044 0.0000 -0.0000 4.3130 1.9645 27.9316 9.8781 0.0000 0.0000 -0.1954 1.6119 -3.6226 -12.4861 0.0000 -0.0000
 -13.1184 -14.6851 36.3500 3.3817 -5.1191 94.2628 0.3361 4.1029 0.7934 -1.1297 0.2771 0.0297 7.9929 -1.0402 -1.0857 3.1275 -0.4620 0.3420 10.6611 -0.0050 2.7307 2.0383 3.8189 7.7285 2.2520 7.8927 -7.0810 -10.2769 -23.4800 7.9249 -0.0000 -0.0000 -0.2268 -19.1882 -4.8692 -7.9007 0.0000 -0.0000 0.0000 -0.0000 0.0000 0.0000 5.4450 -8.1299 8.4877 9.4285 9.8778 -24.1647 -0.0000 0.0000 0.6559 -18.6072 -1.0123 2.7243 -0.0000 0.0000 0.0000 0.0000 0.0000 -0.0000 6.5597 2.2467 -37.3516 6.4000 0.0000 0.0000 -5.5900 1.1061 1.8821 -2.6975 0.0000 -0.0000 4.2233 1.9458 27.7895 9.9809 0.0000 0.0000 -0.2231 1.5974 -3.5217 -12.4822 0.0000 -0.0000
 -13.1284 -14.6799 36.3497 3.3754 -5.1122 94.3165 0.3579 4.0934 0.7834 -1.1237 0.2727 0.0293 7.9864 -1.0299 -1.0846 3.1209 -0.4588 0.3403 10.6373 -0.0184 2.6914 2.0007 3.7807 7.6616 2.2606 7.9159 -7.0597 -10.1917 -23.5030 7.9566 -0.0000 -0.0000 -0.3455 -19.1203 -4.9794 -8.0262 0.0000 0.0000 -0.0000 0.0000 0.0000 -0.0000 5.4555 -8.1363 8.4629 9.4722 9.8503 -24.1700 -0.0000 0.0000 0.5918 -18.6519 -1.0556 2.6802 0.0000 0.0000 0.0000 -0.0000 0.0000 0.0000 6.5341 2.2471 -37.3735 6.4173 0.0000 0.0000 -5.5864 1.1127 1.8460 -2.6890 0.0000 -0.0000 4.1465 1.9308 27.6521 10.0772 0.0000 0.0000 -0.2486 1.5833 -3.4231 -12.4817 0.0000 -0.0000
 -13.1389 -14.6743 36.3493 3.3666 -5.0948 94.3662 0.3667 4.0831 0.7726 -1.1164 0.2692 0.0289 7.9809 -1.0238 -1.0799 3.1156 -0.4547 0.3366 10.6151 -0.0263 2.6536 1.9620 3.7420 7.5961 2.2692 7.9392 -7.0379 -10.1111 -23.5262 7.9924 -0.0000 -0.0000 -0.4581 -19.0527 -5.0901 -8.1490 0.0000 -0.0000 0.0000 -0.0000 0.0000 0.0000 5.4630 -8.1346 8.4392 9.5178 9.8171 -24.1709 -0.0000 0.0000 0.5248 -18.6994 -1.1032 2.6346 0.0000 0.0000 -0.0000 0.0000 0.0000 -0.0000 6.4937 2.2483 -37.3923 6.4396 0.0000 0.0000 -5.5831 1.1200 1.8099 -2.6806 0.0000 -0.0000 4.0575 1.9151 27.5165 10.1741 0.0000 0.0000 -0.2752 1.5683 -3.3230 -12.4857 0.0000 -0.0000
 -13.1482 -14.6684 36.3490 3.3596 -5.0884 94.4082 0.3852 4.0722 0.7621 -1.1130 0.2655 0.0297 7.9773 -1.0153 -1.0759 3.1109 -0.4517 0.3351 10.5974 -0.0302 2.6192 1.9263 3.7057 7.5344 2.2793 7.9634 -7.0162 -10.0371 -23.5506 8.0295 -0.0000 -0.0000 -0.5577 -18.9893 -5.2004 -8.2605 0.0000 0.0000 -0.0000 0.0000 0.0000 0.0000 5.4701 -8.1304 8.4175 9.5633 9.7844 -24.1676 -0.0000 0.0000 0.4570 -18.7478 -1.1547 2.5893 -0.0000 0.0000 -0.0000 0.0000 0.0000 -0.0000 6.4666 2.2520 -37.4102 6.4609 0.0000 0.0000 -5.5797 1.1247 1.7800 -2.6710 0.0000 -0.0000 3.9908 1.9047 27.3995 10.2546 0.0000 0.0000 -0.2970 1.5551 -3.2355 -12.4945 0.0000 -0.0000
 -13.1562 -14.6624 36.3488 3.3518 -5.0887 94.4406 0.4044 4.0607 0.7533 -1.1067 0.2613 0.0290 7.9718 -1.0072 -1.0704 3.1077 -0.4485 0.3353 10.5857 -0.0297 2.5892 1.8941 3.6732 7.4790 2.2926 7.9876 -6.9963 -9.9757 -23.5768 8.0684 -0.0000 -0.0000 -0.6404 -18.9276 -5.3037 -8.3546 0.0000 0.0000 0.0000 0.0000 -0.0000 0.0000 5.4767 -8.1231 8.3990 9.6063 9.7535 -24.1606 -0.0000 0.0000 0.3922 -18.7936 -1.2091 2.5460 0.0000 -0.0000 0.0000 0.0000 -0.0000 0.0000 6.4485 2.2550 -37.4237 6.4794 0.0000 0.0000 -5.5741 1.1255 1.7547 -2.6631 0.0000 -0.0000 3.9430 1.8964 27.3078 10.3174 0.0000 0.0000 -0.3147 1.5433 -3.1662 -12.5080 0.0000 -0.0000
 -13.1633 -14.6560 36.3485 3.3486 -5.0866 94.4624 0.4173 4.0523 0.7447 -1.1023 0.2608 0.0295 7.9694 -1.0028 -1.0617 3.1053 -0.4454 0.3344 10.5794 -0.0225 2.5645 1.8666 3.6441 7.4325 2.3060 8.0093 -6.9790 -9.9265 -23.6007 8.1100 -0.0000 -0.0000 -0.7023 -18.8706 -5.3995 -8.4270 -0.0000 0.0000 -0.0000 0.0000 -0.0000 -0.0000 5.4805 -8.1086 8.3844 9.6455 9.7222 -24.1499 -0.0000 0.0000 0.3337 -18.8374 -1.2631 2.5065 -0.0000 0.0000 -0.0000 -0.0000 0.0000 -0.0000 6.4259 2.2679 -37.4422 6.5056 0.0000 0.0000 -5.5736 1.1270 1.7454 -2.6549 0.0000 -0.0000 3.9056 1.8985 27.2338 10.3590 0.0000 0.0000 -0.3249 1.5340 -3.1064 -12.5258 0.0000 -0.0000
